Coordinates
version=1
nRows=15
nColumns=42
inDegrees=yes

Units are S.I. units (second, meters, Newtons, ...)
If the header above contains a line with 'inDegrees', this indicates whether rotational values are in degrees (yes) or radians (no).

endheader
time	pelvis_tilt	pelvis_list	pelvis_rotation	pelvis_tx	pelvis_ty	pelvis_tz	hip_flexion_r	hip_adduction_r	hip_rotation_r	knee_angle_r	knee_adduction_r	knee_angle_r_beta	ankle_angle_r	subtalar_angle_r	mtp_angle_r	hip_flexion_l	hip_adduction_l	hip_rotation_l	knee_angle_l	knee_adduction_l	knee_angle_l_beta	ankle_angle_l	subtalar_angle_l	mtp_angle_l	lumbar_extension	lumbar_bending	lumbar_rotation	arm_flex_r	arm_add_r	arm_rot_r	elbow_flex_r	pro_sup_r	wrist_flex_r	wrist_dev_r	arm_flex_l	arm_add_l	arm_rot_l	elbow_flex_l	pro_sup_l	wrist_flex_l	wrist_dev_l
      1.10000000	      6.44195509	     -2.81609361	     -4.80929351	      0.16585903	      1.00988680	     -0.19990921	    -19.83451102	      0.82859894	      0.14859688	      4.89322317	     10.59417327	      0.08540286	     11.28216688	      7.02998035	     -7.56205727	     17.52415388	    -12.75706190	    -13.43871602	     22.77880044	     11.03722302	      0.39756507	      0.09259725	    -12.50464642	     -7.56205727	    -16.13056029	     -0.89801409	     11.09282234	     17.88963983	    -20.21697580	     -8.31517322	     33.61567832	     90.00000001	      0.00000000	      0.00000000	    -13.19670275	    -11.31381940	     -9.67539867	     13.73274151	     90.00000001	      0.00000000	      0.00000000
      1.11000000	      5.88589765	     -3.21996207	     -5.07861695	      0.17892395	      1.00684754	     -0.19920194	    -19.93763895	      1.18300952	      0.30591281	      5.23282006	     10.54329533	      0.09132994	     11.65949243	      7.25135543	     -7.56094272	     18.02113261	    -13.16055892	    -13.97159660	     19.57724336	     11.34270400	      0.34168736	      0.01747054	    -10.87002849	     -7.56094272	    -15.60777196	     -0.60098209	     11.41977764	     18.45275883	    -20.69418159	     -7.90728959	     34.34263712	     90.00000001	      0.00000000	      0.00000000	    -14.09896192	    -11.22004446	     -9.92802855	     13.68708122	     90.00000001	      0.00000000	      0.00000000
      1.12000000	      5.95747216	     -3.26906809	     -5.51520144	      0.19262843	      1.00457857	     -0.19871930	    -20.79760947	      0.94304977	      0.49568137	      5.40875573	     10.61843732	      0.09440060	     12.08011617	      7.68518704	     -7.55848808	     17.49752593	    -13.10221432	    -14.73676655	     16.09120245	     11.69361562	      0.28084446	      0.16269516	     -9.19240070	     -7.55848808	    -15.70746198	     -0.75941525	     11.80180878	     18.85017635	    -21.26168057	     -7.14074146	     35.34032756	     90.00000001	      0.00000000	      0.00000000	    -14.80164696	    -11.08629850	    -10.73994513	     13.38335177	     90.00000001	      0.00000000	      0.00000000
      1.13000000	      5.62608884	     -3.55742763	     -5.87167484	      0.20605883	      1.00178710	     -0.19798975	    -21.12469816	      1.10653817	      0.71793838	      5.80668547	     10.54995627	      0.10134578	     12.43915461	      7.88669602	     -7.55675341	     17.59358085	    -13.42598999	    -15.25289252	     13.15449619	     12.18490585	      0.22958927	      0.36498175	     -7.36543972	     -7.55675341	    -15.41113305	     -0.63149259	     12.12573335	     19.30722701	    -21.68067977	     -6.67753352	     36.09642367	     90.00000001	      0.00000000	      0.00000000	    -15.54430058	    -10.96780759	    -11.26209812	     13.21239880	     90.00000001	      0.00000000	      0.00000000
      1.14000000	      5.42873573	     -3.65085616	     -6.25760524	      0.21985475	      0.99920357	     -0.19746829	    -21.61244045	      0.97857184	      0.98394733	      6.15216264	     10.55571580	      0.10737549	     12.69771353	      8.12890115	     -7.55366132	     17.54028497	    -13.50463158	    -16.02598978	     10.58216627	     12.57066425	      0.18469364	      0.49830059	     -5.23169828	     -7.55366132	    -15.22137095	     -0.72198680	     12.40367798	     19.66899083	    -22.06825415	     -6.19432962	     36.86569742	     90.00000001	      0.00000000	      0.00000000	    -16.15031491	    -10.82691315	    -12.26683231	     12.90074737	     90.00000001	      0.00000000	      0.00000000
      1.15000000	      4.94621391	     -3.91277113	     -6.53833330	      0.23358281	      0.99631119	     -0.19666607	    -21.74157726	      1.19090316	      1.25113087	      6.64880313	     10.40227045	      0.11604351	     12.87032914	      8.16836995	     -7.55292238	     17.93983930	    -13.87234549	    -16.33068861	      8.57420534	     13.12231337	      0.14964811	      0.51231762	     -3.68236469	     -7.55292238	    -14.73547014	     -0.61626613	     12.60818605	     19.99585550	    -22.31829919	     -5.92924957	     37.42852402	     90.00000001	      0.00000000	      0.00000000	    -16.87640424	    -10.78838590	    -12.49529834	     12.84994107	     90.00000001	      0.00000000	      0.00000000
      1.16000000	      5.03814034	     -3.81182467	     -7.03790673	      0.24787464	      0.99420736	     -0.19629304	    -22.47180114	      0.72610969	      1.66595643	      7.10326135	     10.43491515	      0.12397530	     13.04326891	      8.30118818	     -7.54900064	     17.63933149	    -13.70542362	    -17.40439658	      7.03317831	     13.30847280	      0.12275212	      1.19000598	     -1.11725869	     -7.54900064	    -14.81679794	     -0.95623782	     12.91214117	     20.20682129	    -22.64946970	     -5.45928732	     38.22751216	     90.00000001	      0.00000000	      0.00000000	    -17.23674535	    -10.60899393	    -13.95867202	     12.34423025	     90.00000001	      0.00000000	      0.00000000
      1.17000000	      4.80806053	     -3.87732407	     -7.38626017	      0.26203558	      0.99182045	     -0.19573057	    -22.78628744	      0.60903939	      2.06180030	      7.72513252	     10.33943976	      0.13482900	     13.07885644	      8.26414692	     -7.54810036	     17.81596090	    -13.76675738	    -17.56001947	      5.97273208	     13.59671036	      0.10424384	      1.32798606	     -0.03132215	     -7.54810036	    -14.57387528	     -1.08190910	     13.11300138	     20.35111040	    -22.85224040	     -5.19823521	     38.87742408	     90.00000001	      0.00000000	      0.00000000	    -17.78169621	    -10.55729273	    -14.23592380	     12.27113282	     90.00000001	      0.00000000	      0.00000000
      1.18000000	      4.89032613	     -3.58492218	     -7.82338431	      0.27673758	      0.98989543	     -0.19546271	    -23.41825989	     -0.05146110	      2.46633059	      8.30302766	     10.36656188	      0.14491517	     13.04364351	      8.24444586	     -7.54587774	     17.66341577	    -13.35727399	    -18.06855251	      5.46572288	     13.65600590	      0.09539486	      1.56788585	      1.11466384	     -7.54587774	    -14.58291914	     -1.62609846	     13.30543816	     20.35675073	    -23.03295171	     -4.90125028	     39.59410887	     90.00000001	      0.00000000	      0.00000000	    -18.12626155	    -10.48381523	    -15.08345725	     11.96937098	     90.00000001	      0.00000000	      0.00000000
      1.19000000	      4.82154431	     -3.40007768	     -8.20896694	      0.29149974	      0.98791629	     -0.19506139	    -23.79679364	     -0.49424940	      2.87208984	      9.09564682	     10.26493623	      0.15874898	     12.92449128	      8.08190699	     -7.54499269	     17.74977634	    -13.09168331	    -18.02708262	      5.44190347	     13.69844298	      0.09497913	      1.65800025	      1.39763897	     -7.54499269	    -14.43435152	     -2.04281337	     13.48120014	     20.26825140	    -23.13043245	     -4.76850698	     40.20397399	     90.00000001	      0.00000000	      0.00000000	    -18.51838216	    -10.46665561	    -15.42602482	     11.88985101	     90.00000001	      0.00000000	      0.00000000
      1.20000000	      4.95889135	     -2.93324755	     -8.62655510	      0.30668273	      0.98629304	     -0.19496864	    -24.37579665	     -1.34777292	      3.31227324	      9.83982549	     10.27110731	      0.17173735	     12.71317245	      7.94721622	     -7.54332539	     17.61257660	    -12.43608640	    -17.98059545	      5.79674897	     13.57972869	      0.10117236	      1.44753716	      1.19672401	     -7.54332539	    -14.43267706	     -2.77221344	     13.61795879	     20.06022342	    -23.19324841	     -4.64340377	     40.83045205	     90.00000001	      0.00000000	      0.00000000	    -18.71082899	    -10.43796631	    -16.14638748	     11.58835638	     90.00000001	      0.00000000	      0.00000000
      1.21000000	      4.91554453	     -2.76032364	     -8.89000518	      0.32194609	      0.98462659	     -0.19453138	    -24.78191083	     -1.67189787	      3.86525855	     10.60617569	     10.03350825	      0.18511269	     12.41063305	      7.99324352	     -7.54304579	     17.73031645	    -12.19322701	    -17.34510915	      6.53576068	     13.60320893	      0.11407054	      1.29772750	      1.14074884	     -7.54304579	    -14.25757920	     -3.18233147	     13.63875360	     19.90395294	    -23.07827441	     -4.64741854	     41.04745804	     90.00000001	      0.00000000	      0.00000000	    -19.03716942	    -10.49444551	    -16.22303235	     11.61339137	     90.00000001	      0.00000000	      0.00000000
      1.22000000	      5.12880629	     -2.29905046	     -9.21034231	      0.33720060	      0.98340273	     -0.19478830	    -25.18998390	     -2.47815933	      4.10540417	     11.82105993	      9.97550341	      0.20631642	     11.70078711	      7.64446657	     -7.54253822	     17.77519857	    -11.55712089	    -17.22594965	      7.98112958	     13.39703264	      0.13929699	      0.73210326	      0.15473998	     -7.54253822	    -14.37554343	     -3.87916450	     13.67980580	     19.51697879	    -23.07789978	     -4.76146313	     41.75940067	     90.00000001	      0.00000000	      0.00000000	    -19.17208557	    -10.46593411	    -16.43916337	     11.63229537	     90.00000001	      0.00000000	      0.00000000
      1.23000000	      5.41588463	     -1.31118196	     -9.64954780	      0.35324044	      0.98255589	     -0.19502372	    -25.61859835	     -3.98757375	      4.20309280	     13.01733252	     10.14431141	      0.22719531	     11.00967464	      7.12791770	     -7.53877869	     17.26082550	    -10.21092066	    -15.94942733	      8.32416941	     13.20328803	      0.14528416	     -1.32472258	     -3.13289475	     -7.53877869	    -14.37464895	     -5.19099206	     13.76522355	     18.82055532	    -22.96194404	     -4.83687638	     42.40205437	     90.00000001	      0.00000000	      0.00000000	    -18.75987528	    -10.49931466	    -18.56872347	     10.75155987	     90.00000001	      0.00000000	      0.00000000
      1.24000000	      5.52024263	     -0.68677486	     -9.89199533	      0.36902441	      0.98178299	     -0.19519175	    -25.73166178	     -4.88218189	      4.29326224	     14.50190377	     10.08436706	      0.25310597	     10.02046468	      6.71684160	     -7.53549305	     17.28399523	     -9.43192912	    -15.02989918	      9.58949384	     13.10781595	      0.16736824	     -2.79562229	     -4.84856681	     -7.53549305	    -14.27492834	     -6.05984701	     13.73433627	     18.16229493	    -22.75921954	     -5.05810049	     42.82974550	     90.00000001	      0.00000000	      0.00000000	    -18.58586906	    -10.58958772	    -19.23579460	     10.46662574	     90.00000001	      0.00000000	      0.00000000
